<?xml version="1.0" ?><svg height="100%" id="svg23" style="fill-rule:evenodd;clip-rule:evenodd;stroke-linejoin:round;stroke-miterlimit:2;" version="1.1" viewBox="0 0 64 64" width="100%" xml:space="preserve" xmlns="http://www.w3.org/2000/svg" xmlns:cc="http://creativecommons.org/ns#" xmlns:dc="http://purl.org/dc/elements/1.1/" xmlns:inkscape="http://www.inkscape.org/namespaces/inkscape" xmlns:rdf="http://www.w3.org/1999/02/22-rdf-syntax-ns#" xmlns:sodipodi="http://sodipodi.sourceforge.net/DTD/sodipodi-0.dtd" xmlns:svg="http://www.w3.org/2000/svg"><defs id="defs27"/><path d="m 24.000174,25.000477 v 22.000069 c 0,7.175022 5.825019,13.00004 13.000041,13.00004 h 6.000018 c 0.552002,0 1.000003,-0.448001 1.000003,-1.000003 0,-0.552002 -0.448001,-1.000003 -1.000003,-1.000003 h -6.000018 c -6.071019,0 -11.000034,-4.929015 -11.000034,-11.000034 V 25.000477 c 0,-0.552001 -0.448002,-1.000003 -1.000003,-1.000003 -0.552002,0 -1.000004,0.448002 -1.000004,1.000003 z" id="path4" style="stroke-width:1;fill:#000000"/><path d="M 48.000249,59.000583 V 47.000546 c 0,-0.552002 -0.448001,-1.000003 -1.000003,-1.000003 h -6.000019 c -1.656005,0 -3.000009,-1.344005 -3.000009,-3.00001 0,0 0,-15.000046 0,-15.000046 0,0 2.000006,0 2.000006,0 0.552002,0 1.000003,-0.448002 1.000003,-1.000003 0,-0.552002 -0.448001,-1.000003 -1.000003,-1.000003 h -3.000009 c -0.552002,0 -1.000003,0.448001 -1.000003,1.000003 v 16.000049 c 0,2.760009 2.240007,5.000016 5.000015,5.000016 0,0 5.000016,0 5.000016,0 0,0 0,11.000034 0,11.000034 0,0.552002 0.448001,1.000003 1.000003,1.000003 0.552002,0 1.000003,-0.448001 1.000003,-1.000003 z" id="path8" style="stroke-width:1;fill:#000000"/><path d="m 44.000236,28.000487 h 3.00001 c 0.552002,0 1.000003,-0.448002 1.000003,-1.000003 V 17.000453 c 0,-0.552002 -0.448001,-1.000003 -1.000003,-1.000003 h -6.000019 c -0.552002,0 -1.000003,0.448001 -1.000003,1.000003 0,0.552001 0.448001,1.000003 1.000003,1.000003 h 5.000016 c 0,0 0,8.000025 0,8.000025 0,0 -2.000007,0 -2.000007,0 -0.552001,0 -1.000003,0.448001 -1.000003,1.000003 0,0.552001 0.448002,1.000003 1.000003,1.000003 z" id="path12" style="stroke-width:1;fill:#000000"/><path d="m 29.000138,28.000386 h 8.000024 c 0.552633,0 1.000003,-0.447701 1.000003,-0.999903 V 5.0004153 c 0,-0.5522017 -0.44737,-0.9999031 -1.000003,-0.9999031 h -7.000021 c -0.552634,0 -1.000003,0.4477014 -1.000003,0.9999031 0,6.6231207 -5.376859,11.9999367 -12.000037,11.9999367 -0.552633,0 -1.000003,0.447702 -1.000003,0.999903 v 9.000228 c 0,0.552202 0.44737,0.999903 1.000003,0.999903 h 4.000012 c 0.551581,0 1.000003,-0.447701 1.000003,-0.999903 0,-0.552201 -0.448422,-0.999903 -1.000003,-0.999903 H 18.000104 V 18.964958 C 24.930651,18.475457 30.474879,12.93144 30.965407,6.0003184 h 5.034752 V 26.00058 h -7.000021 c -0.551581,0 -1.000003,0.447702 -1.000003,0.999903 0,0.552202 0.448422,0.999903 1.000003,0.999903 z" id="path16" style="stroke-width:1.07606;fill:#000000"/></svg>